<svg width="16" height="16" viewBox="0 0 16 16" fill="none" xmlns="http://www.w3.org/2000/svg">
  <rect width="16" height="16" rx="3" fill="url(#gradient)" />
  <path d="M4 3.5h8a1 1 0 011 1v3a1 1 0 01-1 1H4a1 1 0 01-1-1v-3a1 1 0 011-1z" fill="white" fill-opacity="0.9"/>
  <path d="M4 9.5h5a1 1 0 011 1v2a1 1 0 01-1 1H4a1 1 0 01-1-1v-2a1 1 0 011-1z" fill="white" fill-opacity="0.7"/>
  <circle cx="12" cy="11.5" r="1.2" fill="white" fill-opacity="0.8"/>
  <defs>
    <linearGradient id="gradient" x1="0%" y1="0%" x2="100%" y2="100%">
      <stop offset="0%" stop-color="#1e40af" />
      <stop offset="100%" stop-color="#3b82f6" />
    </linearGradient>
  </defs>
</svg>
