<svg width="32" height="32" viewBox="0 0 32 32" fill="none" xmlns="http://www.w3.org/2000/svg">
  <rect width="32" height="32" rx="6" fill="url(#gradient)" />
  <path d="M8 7h16a2 2 0 012 2v6a2 2 0 01-2 2H8a2 2 0 01-2-2V9a2 2 0 012-2z" fill="white" fill-opacity="0.9"/>
  <path d="M8 19h10a2 2 0 012 2v4a2 2 0 01-2 2H8a2 2 0 01-2-2v-4a2 2 0 012-2z" fill="white" fill-opacity="0.7"/>
  <circle cx="24" cy="23" r="2.5" fill="white" fill-opacity="0.8"/>
  <defs>
    <linearGradient id="gradient" x1="0%" y1="0%" x2="100%" y2="100%">
      <stop offset="0%" stop-color="#1e40af" />
      <stop offset="100%" stop-color="#3b82f6" />
    </linearGradient>
  </defs>
</svg>
