<svg width="192" height="192" viewBox="0 0 192 192" fill="none" xmlns="http://www.w3.org/2000/svg">
  <rect width="192" height="192" rx="38" fill="url(#gradient)" />
  <path d="M48 42h96a12 12 0 0112 12v36a12 12 0 01-12 12H48a12 12 0 01-12-12V54a12 12 0 0112-12z" fill="white" fill-opacity="0.9"/>
  <path d="M48 114h60a12 12 0 0112 12v24a12 12 0 01-12 12H48a12 12 0 01-12-12v-24a12 12 0 0112-12z" fill="white" fill-opacity="0.7"/>
  <circle cx="144" cy="138" r="15" fill="white" fill-opacity="0.8"/>
  <defs>
    <linearGradient id="gradient" x1="0%" y1="0%" x2="100%" y2="100%">
      <stop offset="0%" stop-color="#1e40af" />
      <stop offset="100%" stop-color="#3b82f6" />
    </linearGradient>
  </defs>
</svg>
